<svg width="265" height="48" viewBox="0 0 265 48" fill="none" xmlns="http://www.w3.org/2000/svg">
<path d="M31.8466 34.5914C31.8466 36.5255 31.4168 38.2448 30.5572 39.7491C29.6975 41.2535 28.4511 42.5215 26.8178 43.553C25.2275 44.5846 23.2933 45.3797 21.0153 45.9385C18.7802 46.4543 16.2873 46.7122 13.5365 46.7122H0.190702V3.77359H15.5996C17.9206 3.77359 19.9837 4.03148 21.7889 4.54725C23.6371 5.06303 25.1845 5.77223 26.4309 6.67484C27.6774 7.57745 28.623 8.6305 29.2677 9.83398C29.9554 11.0375 30.2993 12.3484 30.2993 13.7668C30.2993 16.4317 29.5471 18.6237 28.0427 20.343C26.5814 22.0622 24.4323 23.3517 21.5955 24.2113C23.0569 24.4692 24.4108 24.8775 25.6573 25.4363C26.9037 25.995 27.9783 26.7042 28.8809 27.5639C29.8265 28.4235 30.5572 29.4336 31.0729 30.5941C31.5887 31.7546 31.8466 33.087 31.8466 34.5914ZM21.4021 33.7532C21.4021 32.1199 20.7359 30.8949 19.4035 30.0783C18.114 29.2187 16.3088 28.7888 13.9878 28.7888H10.5063V38.7821H14.2457C16.8246 38.7821 18.6513 38.2878 19.7258 37.2992C20.8433 36.3106 21.4021 35.1286 21.4021 33.7532ZM13.6009 20.8588C15.4492 20.8588 16.9535 20.4504 18.114 19.6338C19.2745 18.7741 19.8548 17.5707 19.8548 16.0233C19.8548 14.6479 19.339 13.5949 18.3074 12.8642C17.3189 12.0905 15.922 11.7037 14.1167 11.7037H10.5063V20.8588H13.6009ZM47.6982 37.0413C47.6982 37.858 47.8702 38.5027 48.214 38.9755C48.5579 39.4053 49.2241 39.6202 50.2127 39.6202C50.8144 39.6202 51.5451 39.5557 52.4047 39.4268L52.7271 46.5187C51.8675 46.7766 50.8789 46.97 49.7614 47.099C48.6868 47.2709 47.5693 47.3569 46.4088 47.3569C44.6895 47.3569 43.2497 47.099 42.0892 46.5832C40.9286 46.0674 40.0045 45.3797 39.3168 44.5201C38.6291 43.6605 38.1348 42.6934 37.834 41.6188C37.5331 40.5013 37.3827 39.3623 37.3827 38.2018V1.19469H47.6982V37.0413ZM86.8188 15.1207V46.7122H76.8901V42.5859C75.6866 44.3912 74.3327 45.6376 72.8283 46.3253C71.324 47.013 69.7337 47.3569 68.0574 47.3569C65.9513 47.3569 64.1676 46.9271 62.7062 46.0674C61.2878 45.1648 60.1273 43.9828 59.2247 42.5215C58.3651 41.0601 57.7418 39.3838 57.355 37.4926C56.9682 35.5584 56.7747 33.5383 56.7747 31.4322V15.1207H67.0903V31.6256C67.0903 34.2475 67.4557 36.1817 68.1863 37.4281C68.917 38.6316 70.1205 39.2334 71.7968 39.2334C72.8713 39.2334 73.7954 38.997 74.5691 38.5242C75.3858 38.0514 76.0305 37.4711 76.5033 36.7834V15.1207H86.8188ZM108.553 14.476C112.679 14.476 115.945 15.701 118.352 18.1509C120.759 20.5579 121.963 23.9104 121.963 28.2086C121.963 29.8419 121.769 31.5827 121.383 33.4309H103.072C103.158 35.365 103.803 36.9339 105.007 38.1373C106.253 39.2978 108.144 39.8781 110.68 39.8781C112.227 39.8781 113.839 39.7491 115.516 39.4913C117.235 39.1904 118.718 38.7606 119.964 38.2018L121.254 44.8425C119.62 45.6591 117.772 46.2823 115.709 46.7122C113.689 47.142 111.583 47.3569 109.391 47.3569C106.64 47.3569 104.211 46.97 102.105 46.1964C99.9992 45.3797 98.237 44.2622 96.8186 42.8438C95.4002 41.4254 94.3257 39.7277 93.595 37.7505C92.8643 35.7734 92.499 33.5813 92.499 31.1743C92.499 28.5954 92.8643 26.2744 93.595 24.2113C94.3686 22.1482 95.4432 20.4074 96.8186 18.9891C98.237 17.5277 99.9348 16.4102 101.912 15.6365C103.889 14.8628 106.103 14.476 108.553 14.476ZM108.23 21.0522C106.597 21.0522 105.329 21.5894 104.426 22.664C103.567 23.6955 103.137 25.1354 103.137 26.9836H112.292C112.378 26.6398 112.421 26.2744 112.421 25.8876C112.421 24.5122 112.056 23.3732 111.325 22.4706C110.594 21.525 109.563 21.0522 108.23 21.0522Z" fill="#2E2E2E"/>
<path d="M159.204 17.7641C159.204 20.0421 158.709 22.0837 157.721 23.889C156.732 25.6942 155.357 27.22 153.595 28.4665C151.875 29.67 149.834 30.5941 147.47 31.2388C145.106 31.8835 142.548 32.2059 139.797 32.2059H138.701V46.7122H128.128V3.77359H140.507C143.214 3.77359 145.707 4.05297 147.985 4.61172C150.306 5.17048 152.284 6.03012 153.917 7.19062C155.593 8.30814 156.883 9.74802 157.785 11.5103C158.731 13.2725 159.204 15.3571 159.204 17.7641ZM149.017 17.8286C149.017 13.8743 146.202 11.8971 140.571 11.8971H138.701V24.0824H140.442C143.236 24.0824 145.364 23.5236 146.825 22.4061C148.286 21.2886 149.017 19.7627 149.017 17.8286ZM183.999 24.0179H182.774C178.691 24.0179 175.811 25.0495 174.135 27.1126V46.7122H163.819V15.1207H173.813V20.4074C174.414 18.6882 175.339 17.3343 176.585 16.3457C177.831 15.3571 179.465 14.8628 181.485 14.8628C182.087 14.8628 182.581 14.9058 182.968 14.9918C183.398 15.0348 183.827 15.1207 184.257 15.2497L183.999 24.0179ZM188.248 46.7122V15.1207H198.564V46.7122H188.248ZM187.604 5.90117C187.604 4.26787 188.141 2.89247 189.216 1.77494C190.29 0.657422 191.687 0.0986617 193.406 0.0986617C195.125 0.0986617 196.522 0.657422 197.597 1.77494C198.671 2.89247 199.209 4.26787 199.209 5.90117C199.209 7.53447 198.671 8.90988 197.597 10.0274C196.522 11.1449 195.125 11.7037 193.406 11.7037C191.687 11.7037 190.29 11.1449 189.216 10.0274C188.141 8.90988 187.604 7.53447 187.604 5.90117ZM206.318 46.7122V15.1207H216.247V19.2469C217.236 17.5277 218.504 16.3027 220.051 15.572C221.641 14.8413 223.318 14.476 225.08 14.476C227.186 14.476 228.97 14.9273 230.431 15.8299C231.892 16.6895 233.074 17.85 233.977 19.3114C234.923 20.7728 235.589 22.4706 235.976 24.4047C236.405 26.2959 236.62 28.2946 236.62 30.4007V46.7122H226.305V30.2072C226.305 27.5854 225.896 25.6727 225.08 24.4692C224.263 23.2227 223.017 22.5995 221.34 22.5995C220.266 22.5995 219.32 22.8359 218.504 23.3087C217.73 23.7815 217.107 24.3617 216.634 25.0495V46.7122H206.318ZM240.365 15.1207H245.2V6.86826H255.516V15.1207H264.606V22.9863H255.516V35.365C255.516 36.6115 255.774 37.6001 256.289 38.3308C256.848 39.0185 257.837 39.3623 259.255 39.3623C260.029 39.3623 260.802 39.3193 261.576 39.2334C262.393 39.1044 263.166 38.9325 263.897 38.7176L264.606 45.874C263.575 46.3468 262.307 46.7122 260.802 46.97C259.298 47.2279 257.794 47.3569 256.289 47.3569C254.269 47.3569 252.55 47.056 251.132 46.4543C249.756 45.8095 248.617 44.9714 247.715 43.9398C246.855 42.8653 246.21 41.6188 245.78 40.2005C245.394 38.7391 245.2 37.1917 245.2 35.5584V22.9863H240.365V15.1207Z" fill="#2E4D90"/>
</svg>
